<svg width="40" height="40" viewBox="0 0 40 40" fill="none" xmlns="http://www.w3.org/2000/svg">
<path d="M36.6268 15.7855C36.5136 15.724 36.3858 15.6943 36.2571 15.6994C36.1283 15.7045 36.0033 15.7443 35.8953 15.8146L29.6715 19.8591V17.8166C29.6709 17.2722 29.4543 16.7504 29.0694 16.3655C28.6845 15.9806 28.1627 15.7641 27.6183 15.7634H24.0296C23.9122 14.7773 23.4373 13.8684 22.6947 13.209C21.9521 12.5495 20.9935 12.1853 20.0004 12.1853C19.0072 12.1853 18.0486 12.5495 17.306 13.209C16.5635 13.8684 16.0885 14.7773 15.9711 15.7634H5.05226C4.50792 15.7641 3.98607 15.9806 3.60116 16.3655C3.21626 16.7504 2.99973 17.2722 2.99908 17.8166V32.8295C2.99973 33.3739 3.21626 33.8957 3.60116 34.2806C3.98607 34.6655 4.50792 34.8821 5.05226 34.8827H27.6183C28.1627 34.8821 28.6845 34.6655 29.0694 34.2806C29.4543 33.8957 29.6709 33.3739 29.6715 32.8295V30.7882L35.8953 34.8312C36.0033 34.9011 36.1282 34.9407 36.2568 34.9457C36.3854 34.9506 36.5129 34.9208 36.626 34.8594C36.7391 34.7979 36.8335 34.7071 36.8994 34.5965C36.9652 34.4859 36.9999 34.3596 37 34.2309V16.4148C37 16.2861 36.9654 16.1597 36.8997 16.049C36.8341 15.9382 36.7398 15.8472 36.6268 15.7855ZM18.1393 14.3899C18.5699 13.9592 19.1365 13.6912 19.7425 13.6315C20.3486 13.5718 20.9565 13.7241 21.4629 14.0624C21.9692 14.4008 22.3426 14.9042 22.5194 15.4869C22.6961 16.0697 22.6654 16.6957 22.4323 17.2583C22.1993 17.8209 21.7783 18.2853 21.2412 18.5724C20.7042 18.8594 20.0842 18.9514 19.4869 18.8325C18.8896 18.7137 18.3521 18.3914 17.9658 17.9206C17.5795 17.4499 17.3684 16.8597 17.3684 16.2507C17.3675 15.905 17.4352 15.5625 17.5675 15.2431C17.6998 14.9237 17.8941 14.6337 18.1393 14.3899ZM28.2394 32.8295C28.2392 32.9942 28.1737 33.1521 28.0573 33.2685C27.9409 33.3849 27.783 33.4504 27.6183 33.4506H5.05226C4.8876 33.4504 4.72974 33.3849 4.61331 33.2685C4.49687 33.1521 4.43137 32.9942 4.43115 32.8295V17.8166C4.43137 17.6519 4.49687 17.4941 4.61331 17.3776C4.72974 17.2612 4.8876 17.1957 5.05226 17.1955H16.0534C16.2634 18.0845 16.7674 18.8766 17.4838 19.4434C18.2001 20.0103 19.0869 20.3187 20.0004 20.3187C20.9139 20.3187 21.8006 20.0103 22.517 19.4434C23.2333 18.8766 23.7373 18.0845 23.9473 17.1955H27.6183C27.783 17.1957 27.9409 17.2612 28.0573 17.3776C28.1737 17.4941 28.2392 17.6519 28.2394 17.8166V32.8295ZM35.5692 32.9114L29.6715 29.0808V21.5649L35.5692 17.7339V32.9114Z" fill="white"/>
<path d="M13.8791 10.1303C13.8125 10.1968 13.7597 10.2758 13.7236 10.3627C13.6876 10.4496 13.669 10.5428 13.6689 10.6368C13.6689 10.7309 13.6873 10.8241 13.7233 10.9111C13.7592 10.998 13.812 11.077 13.8785 11.1436C13.945 11.2102 14.0239 11.263 14.1108 11.2991C14.1977 11.3351 14.2909 11.3537 14.385 11.3538C14.4791 11.3538 14.5723 11.3354 14.6592 11.2994C14.7462 11.2634 14.8252 11.2107 14.8918 11.1442C16.2467 9.78956 18.0842 9.02853 20.0001 9.02853C21.9161 9.02853 23.7536 9.78956 25.1085 11.1442C25.2428 11.2785 25.4249 11.354 25.6149 11.354C25.8048 11.354 25.9869 11.2785 26.1212 11.1442C26.2555 11.0099 26.3309 10.8278 26.3309 10.6379C26.3309 10.448 26.2555 10.2658 26.1212 10.1316C24.4978 8.50819 22.296 7.59619 20.0001 7.59619C17.7043 7.59619 15.5025 8.50819 13.8791 10.1316V10.1303Z" fill="white"/>
<path d="M11.1741 8.14085C11.2681 8.14103 11.3613 8.12262 11.4481 8.08667C11.535 8.05071 11.6139 7.99793 11.6803 7.93136C13.8868 5.72483 16.8796 4.48522 20.0001 4.48522C23.1207 4.48522 26.1134 5.72483 28.32 7.93136C28.3865 7.99785 28.4655 8.0506 28.5523 8.08658C28.6392 8.12257 28.7323 8.14109 28.8264 8.14109C28.9204 8.14109 29.0135 8.12257 29.1004 8.08658C29.1873 8.0506 29.2662 7.99785 29.3327 7.93136C29.3992 7.86487 29.4519 7.78593 29.4879 7.69905C29.5239 7.61217 29.5424 7.51906 29.5424 7.42502C29.5424 7.33099 29.5239 7.23787 29.4879 7.151C29.4519 7.06412 29.3992 6.98518 29.3327 6.91869C26.8575 4.44366 23.5005 3.05322 20.0001 3.05322C16.4998 3.05322 13.1428 4.44366 10.6676 6.91869C10.5675 7.01885 10.4993 7.14644 10.4718 7.28532C10.4442 7.42421 10.4584 7.56816 10.5126 7.69897C10.5668 7.82978 10.6586 7.94158 10.7763 8.02023C10.8941 8.09888 11.0325 8.14086 11.1741 8.14085Z" fill="white"/>
</svg>
