<svg width="56" height="56" viewBox="0 0 56 56" fill="none" xmlns="http://www.w3.org/2000/svg">
<g clip-path="url(#clip0)">
<path d="M51.3333 24.619V14C51.3333 10.7847 48.7153 8.16675 45.5 8.16675H10.5C7.2847 8.16675 4.6667 10.7847 4.6667 14V24.619C2.009 25.1603 0 27.517 0 30.3333V37.3333V42V46.6667C0 47.3107 0.522703 47.8335 1.1667 47.8335C1.8107 47.8335 2.33341 47.3107 2.33341 46.6667V43.1667H53.6667V46.6667C53.6667 47.3107 54.1894 47.8335 54.8334 47.8335C55.4774 47.8335 56.0001 47.3107 56.0001 46.6667V42V37.3333V30.3333C56 27.517 53.991 25.1603 51.3333 24.619ZM7 14C7 12.0703 8.5703 10.5 10.5 10.5H45.5C47.4297 10.5 49 12.0703 49 14V24.5H45.7893C46.018 23.8583 46.0763 23.1653 45.906 22.484L44.7393 17.8173C44.3496 16.2563 42.952 15.1666 41.3443 15.1666H33.8333C31.9036 15.1666 30.3333 16.7369 30.3333 18.6666V23.3333C30.3333 23.744 30.4173 24.1336 30.548 24.5H25.452C25.5827 24.1337 25.6667 23.744 25.6667 23.3333V18.6666C25.6667 16.7369 24.0964 15.1666 22.1667 15.1666H14.6557C13.048 15.1666 11.6504 16.2586 11.2607 17.8173L10.094 22.484C9.9237 23.1653 9.982 23.8583 10.2107 24.5H7V14ZM43.4303 24.052C43.2086 24.3367 42.8726 24.5 42.511 24.5H33.8333C33.1893 24.5 32.6666 23.9773 32.6666 23.3333V18.6666C32.6666 18.0226 33.1893 17.4999 33.8333 17.4999H41.3443C41.881 17.4999 42.3453 17.8639 42.476 18.3842L43.6427 23.0509C43.7313 23.401 43.6543 23.7673 43.4303 24.052ZM23.331 18.6643V23.331C23.331 23.975 22.8083 24.4977 22.1643 24.4977H13.4866C13.1249 24.4977 12.7889 24.3345 12.5673 24.0497C12.3457 23.765 12.2663 23.3987 12.355 23.0487L13.5217 18.382C13.6547 17.864 14.119 17.5 14.6534 17.4977H22.1644C22.8083 17.4977 23.331 18.0203 23.331 18.6643ZM53.6667 40.8333H2.3333V38.5H53.6666V40.8333H53.6667ZM53.6667 36.1667H2.3333V30.3335C2.3333 28.4038 3.90359 26.8335 5.8333 26.8335H13.489H22.1667H33.8334H42.5111H50.1668C52.0965 26.8335 53.6668 28.4038 53.6668 30.3335V36.1667H53.6667Z" fill="#66A80F"/>
</g>
<defs>
<clipPath id="clip0">
<rect width="56" height="56" fill="white"/>
</clipPath>
</defs>
</svg>
