<svg width="40" height="40" viewBox="0 0 40 40" fill="none" xmlns="http://www.w3.org/2000/svg">
<path d="M30.625 38.75H9.375C8.21508 38.7487 7.10305 38.2873 6.28287 37.4671C5.46268 36.6469 5.00132 35.5349 5 34.375V5.625C5.00132 4.46508 5.46268 3.35305 6.28287 2.53287C7.10305 1.71268 8.21508 1.25132 9.375 1.25H30.625C31.7849 1.25132 32.8969 1.71268 33.7171 2.53287C34.5373 3.35305 34.9987 4.46508 35 5.625V34.375C34.9987 35.5349 34.5373 36.6469 33.7171 37.4671C32.8969 38.2873 31.7849 38.7487 30.625 38.75ZM9.375 2.5C8.5465 2.50099 7.75222 2.83055 7.16639 3.41639C6.58055 4.00222 6.25099 4.7965 6.25 5.625V34.375C6.25099 35.2035 6.58055 35.9978 7.16639 36.5836C7.75222 37.1694 8.5465 37.499 9.375 37.5H30.625C31.4535 37.499 32.2478 37.1694 32.8336 36.5836C33.4194 35.9978 33.749 35.2035 33.75 34.375V5.625C33.749 4.7965 33.4194 4.00222 32.8336 3.41639C32.2478 2.83055 31.4535 2.50099 30.625 2.5H9.375Z" fill="white"/>
<path d="M21.875 36.25H18.125C17.6277 36.25 17.1508 36.0525 16.7992 35.7008C16.4475 35.3492 16.25 34.8723 16.25 34.375V31.875C16.25 31.3777 16.4475 30.9008 16.7992 30.5492C17.1508 30.1975 17.6277 30 18.125 30H21.875C22.3723 30 22.8492 30.1975 23.2008 30.5492C23.5525 30.9008 23.75 31.3777 23.75 31.875V34.375C23.75 34.8723 23.5525 35.3492 23.2008 35.7008C22.8492 36.0525 22.3723 36.25 21.875 36.25ZM18.125 31.25C17.9592 31.25 17.8003 31.3158 17.6831 31.4331C17.5658 31.5503 17.5 31.7092 17.5 31.875V34.375C17.5 34.5408 17.5658 34.6997 17.6831 34.8169C17.8003 34.9342 17.9592 35 18.125 35H21.875C22.0408 35 22.1997 34.9342 22.3169 34.8169C22.4342 34.6997 22.5 34.5408 22.5 34.375V31.875C22.5 31.7092 22.4342 31.5503 22.3169 31.4331C22.1997 31.3158 22.0408 31.25 21.875 31.25H18.125Z" fill="white"/>
<path d="M13.125 36.25H9.375C8.87772 36.25 8.40081 36.0525 8.04917 35.7008C7.69754 35.3492 7.5 34.8723 7.5 34.375V31.875C7.5 31.3777 7.69754 30.9008 8.04917 30.5492C8.40081 30.1975 8.87772 30 9.375 30H13.125C13.6223 30 14.0992 30.1975 14.4508 30.5492C14.8025 30.9008 15 31.3777 15 31.875V34.375C15 34.8723 14.8025 35.3492 14.4508 35.7008C14.0992 36.0525 13.6223 36.25 13.125 36.25ZM9.375 31.25C9.20924 31.25 9.05027 31.3158 8.93306 31.4331C8.81585 31.5503 8.75 31.7092 8.75 31.875V34.375C8.75 34.5408 8.81585 34.6997 8.93306 34.8169C9.05027 34.9342 9.20924 35 9.375 35H13.125C13.2908 35 13.4497 34.9342 13.5669 34.8169C13.6842 34.6997 13.75 34.5408 13.75 34.375V31.875C13.75 31.7092 13.6842 31.5503 13.5669 31.4331C13.4497 31.3158 13.2908 31.25 13.125 31.25H9.375Z" fill="white"/>
<path d="M30.625 36.25H26.875C26.3777 36.25 25.9008 36.0525 25.5492 35.7008C25.1975 35.3492 25 34.8723 25 34.375V24.375C25 23.8777 25.1975 23.4008 25.5492 23.0492C25.9008 22.6975 26.3777 22.5 26.875 22.5H30.625C31.1223 22.5 31.5992 22.6975 31.9508 23.0492C32.3025 23.4008 32.5 23.8777 32.5 24.375V34.375C32.5 34.8723 32.3025 35.3492 31.9508 35.7008C31.5992 36.0525 31.1223 36.25 30.625 36.25ZM26.875 23.75C26.7092 23.75 26.5503 23.8158 26.4331 23.9331C26.3158 24.0503 26.25 24.2092 26.25 24.375V34.375C26.25 34.5408 26.3158 34.6997 26.4331 34.8169C26.5503 34.9342 26.7092 35 26.875 35H30.625C30.7908 35 30.9497 34.9342 31.0669 34.8169C31.1842 34.6997 31.25 34.5408 31.25 34.375V24.375C31.25 24.2092 31.1842 24.0503 31.0669 23.9331C30.9497 23.8158 30.7908 23.75 30.625 23.75H26.875Z" fill="white"/>
<path d="M21.875 28.75H18.125C17.6277 28.75 17.1508 28.5525 16.7992 28.2008C16.4475 27.8492 16.25 27.3723 16.25 26.875V24.375C16.25 23.8777 16.4475 23.4008 16.7992 23.0492C17.1508 22.6975 17.6277 22.5 18.125 22.5H21.875C22.3723 22.5 22.8492 22.6975 23.2008 23.0492C23.5525 23.4008 23.75 23.8777 23.75 24.375V26.875C23.75 27.3723 23.5525 27.8492 23.2008 28.2008C22.8492 28.5525 22.3723 28.75 21.875 28.75ZM18.125 23.75C17.9592 23.75 17.8003 23.8158 17.6831 23.9331C17.5658 24.0503 17.5 24.2092 17.5 24.375V26.875C17.5 27.0408 17.5658 27.1997 17.6831 27.3169C17.8003 27.4342 17.9592 27.5 18.125 27.5H21.875C22.0408 27.5 22.1997 27.4342 22.3169 27.3169C22.4342 27.1997 22.5 27.0408 22.5 26.875V24.375C22.5 24.2092 22.4342 24.0503 22.3169 23.9331C22.1997 23.8158 22.0408 23.75 21.875 23.75H18.125Z" fill="white"/>
<path d="M13.125 28.75H9.375C8.87772 28.75 8.40081 28.5525 8.04917 28.2008C7.69754 27.8492 7.5 27.3723 7.5 26.875V24.375C7.5 23.8777 7.69754 23.4008 8.04917 23.0492C8.40081 22.6975 8.87772 22.5 9.375 22.5H13.125C13.6223 22.5 14.0992 22.6975 14.4508 23.0492C14.8025 23.4008 15 23.8777 15 24.375V26.875C15 27.3723 14.8025 27.8492 14.4508 28.2008C14.0992 28.5525 13.6223 28.75 13.125 28.75ZM9.375 23.75C9.20924 23.75 9.05027 23.8158 8.93306 23.9331C8.81585 24.0503 8.75 24.2092 8.75 24.375V26.875C8.75 27.0408 8.81585 27.1997 8.93306 27.3169C9.05027 27.4342 9.20924 27.5 9.375 27.5H13.125C13.2908 27.5 13.4497 27.4342 13.5669 27.3169C13.6842 27.1997 13.75 27.0408 13.75 26.875V24.375C13.75 24.2092 13.6842 24.0503 13.5669 23.9331C13.4497 23.8158 13.2908 23.75 13.125 23.75H9.375Z" fill="white"/>
<path d="M21.875 21.25H18.125C17.6277 21.25 17.1508 21.0525 16.7992 20.7008C16.4475 20.3492 16.25 19.8723 16.25 19.375V16.875C16.25 16.3777 16.4475 15.9008 16.7992 15.5492C17.1508 15.1975 17.6277 15 18.125 15H21.875C22.3723 15 22.8492 15.1975 23.2008 15.5492C23.5525 15.9008 23.75 16.3777 23.75 16.875V19.375C23.75 19.8723 23.5525 20.3492 23.2008 20.7008C22.8492 21.0525 22.3723 21.25 21.875 21.25ZM18.125 16.25C17.9592 16.25 17.8003 16.3158 17.6831 16.4331C17.5658 16.5503 17.5 16.7092 17.5 16.875V19.375C17.5 19.5408 17.5658 19.6997 17.6831 19.8169C17.8003 19.9342 17.9592 20 18.125 20H21.875C22.0408 20 22.1997 19.9342 22.3169 19.8169C22.4342 19.6997 22.5 19.5408 22.5 19.375V16.875C22.5 16.7092 22.4342 16.5503 22.3169 16.4331C22.1997 16.3158 22.0408 16.25 21.875 16.25H18.125Z" fill="white"/>
<path d="M13.125 21.25H9.375C8.87772 21.25 8.40081 21.0525 8.04917 20.7008C7.69754 20.3492 7.5 19.8723 7.5 19.375V16.875C7.5 16.3777 7.69754 15.9008 8.04917 15.5492C8.40081 15.1975 8.87772 15 9.375 15H13.125C13.6223 15 14.0992 15.1975 14.4508 15.5492C14.8025 15.9008 15 16.3777 15 16.875V19.375C15 19.8723 14.8025 20.3492 14.4508 20.7008C14.0992 21.0525 13.6223 21.25 13.125 21.25ZM9.375 16.25C9.20924 16.25 9.05027 16.3158 8.93306 16.4331C8.81585 16.5503 8.75 16.7092 8.75 16.875V19.375C8.75 19.5408 8.81585 19.6997 8.93306 19.8169C9.05027 19.9342 9.20924 20 9.375 20H13.125C13.2908 20 13.4497 19.9342 13.5669 19.8169C13.6842 19.6997 13.75 19.5408 13.75 19.375V16.875C13.75 16.7092 13.6842 16.5503 13.5669 16.4331C13.4497 16.3158 13.2908 16.25 13.125 16.25H9.375Z" fill="white"/>
<path d="M30.625 21.25H26.875C26.3777 21.25 25.9008 21.0525 25.5492 20.7008C25.1975 20.3492 25 19.8723 25 19.375V16.875C25 16.3777 25.1975 15.9008 25.5492 15.5492C25.9008 15.1975 26.3777 15 26.875 15H30.625C31.1223 15 31.5992 15.1975 31.9508 15.5492C32.3025 15.9008 32.5 16.3777 32.5 16.875V19.375C32.5 19.8723 32.3025 20.3492 31.9508 20.7008C31.5992 21.0525 31.1223 21.25 30.625 21.25ZM26.875 16.25C26.7092 16.25 26.5503 16.3158 26.4331 16.4331C26.3158 16.5503 26.25 16.7092 26.25 16.875V19.375C26.25 19.5408 26.3158 19.6997 26.4331 19.8169C26.5503 19.9342 26.7092 20 26.875 20H30.625C30.7908 20 30.9497 19.9342 31.0669 19.8169C31.1842 19.6997 31.25 19.5408 31.25 19.375V16.875C31.25 16.7092 31.1842 16.5503 31.0669 16.4331C30.9497 16.3158 30.7908 16.25 30.625 16.25H26.875Z" fill="white"/>
<path d="M30.625 12.5H9.375C8.87772 12.5 8.40081 12.3025 8.04917 11.9508C7.69754 11.5992 7.5 11.1223 7.5 10.625V5.625C7.5 5.12772 7.69754 4.65081 8.04917 4.29917C8.40081 3.94754 8.87772 3.75 9.375 3.75H30.625C31.1223 3.75 31.5992 3.94754 31.9508 4.29917C32.3025 4.65081 32.5 5.12772 32.5 5.625V10.625C32.5 11.1223 32.3025 11.5992 31.9508 11.9508C31.5992 12.3025 31.1223 12.5 30.625 12.5ZM9.375 5C9.20924 5 9.05027 5.06585 8.93306 5.18306C8.81585 5.30027 8.75 5.45924 8.75 5.625V10.625C8.75 10.7908 8.81585 10.9497 8.93306 11.0669C9.05027 11.1842 9.20924 11.25 9.375 11.25H30.625C30.7908 11.25 30.9497 11.1842 31.0669 11.0669C31.1842 10.9497 31.25 10.7908 31.25 10.625V5.625C31.25 5.45924 31.1842 5.30027 31.0669 5.18306C30.9497 5.06585 30.7908 5 30.625 5H9.375Z" fill="white"/>
</svg>
