<svg width="56" height="50" viewBox="0 0 56 50" fill="none" xmlns="http://www.w3.org/2000/svg">
<path d="M53.9148 25.1041L50.5554 14.5899C49.7158 12.4331 47.6425 11.0093 45.3282 11.0001H38.6867L36.5536 4.33C35.7202 2.16995 33.6473 0.742145 31.332 0.733398H10.668C8.33568 0.746817 6.25281 2.1961 5.42957 4.37835L2.08516 14.8375C0.859578 15.1599 0.00397229 16.2661 0 17.5334V28.7334C0.00169746 30.2791 1.25431 31.5317 2.8 31.5334H3.73333V36.2001C3.73503 37.7458 4.98764 38.9984 6.53333 39.0001H9.33333C10.879 38.9984 12.1316 37.7458 12.1333 36.2001V31.5334H14V39.0001C14.0017 40.5458 15.2543 41.7984 16.8 41.8001H17.7333V46.4667C17.735 48.0124 18.9876 49.265 20.5333 49.2667H23.3333C24.879 49.265 26.1316 48.0124 26.1333 46.4667V41.8001H43.8667V46.4667C43.8684 48.0124 45.121 49.265 46.6667 49.2667H49.4667C51.0124 49.265 52.265 48.0124 52.2667 46.4667V41.8001H53.2C54.7457 41.7984 55.9983 40.5458 56 39.0001V27.8001C55.9961 26.5328 55.1405 25.4265 53.9148 25.1041ZM48.7947 15.2087L51.9222 25.0001H48.7049L46.2201 16.3426C46.105 15.9424 45.739 15.6668 45.3227 15.6667H24.6773C24.261 15.6668 23.895 15.9424 23.78 16.3426L21.2951 25.0001H18.0778L20.9379 16.041C20.9442 16.0268 20.9464 16.0114 20.952 15.9968L21.1873 15.2594C21.7469 13.8217 23.1291 12.8727 24.6718 12.8667H45.3282C46.8529 12.8683 48.2242 13.7948 48.7947 15.2087ZM46.7624 25.0001H23.2376L25.3805 17.5334H44.6195L46.7624 25.0001ZM19.4269 14.6409L19.3973 14.7334H9.23757L11.3805 7.26673H30.6204L31.6968 11.0001H24.6718C22.3394 11.0141 20.2556 12.4606 19.4269 14.6409ZM7.19096 4.99537C7.74566 3.55673 9.12613 2.60573 10.668 2.60007H31.332C32.8568 2.60129 34.2272 3.53078 34.7923 4.94703L36.7271 11.0001H33.6397L32.2196 6.07496C32.1044 5.67526 31.7386 5.40002 31.3227 5.40007H10.6773C10.261 5.40013 9.89504 5.67578 9.78003 6.07589L7.29512 14.7334H4.07867L7.19096 4.99537ZM10.2667 36.2001C10.266 36.7153 9.84852 37.1327 9.33333 37.1334H6.53333C6.01814 37.1327 5.60067 36.7153 5.6 36.2001V31.5334H10.2667V36.2001ZM2.8 29.6667C2.28481 29.6661 1.86734 29.2486 1.86667 28.7334V17.5334C1.86734 17.0182 2.28481 16.6007 2.8 16.6001H18.8011L16.0851 25.1041C14.8595 25.4266 14.0039 26.5328 14 27.8001V29.6667H2.8ZM24.2667 46.4667C24.266 46.9819 23.8485 47.3994 23.3333 47.4001H20.5333C20.0181 47.3994 19.6007 46.9819 19.6 46.4667V41.8001H24.2667V46.4667ZM50.4 46.4667C50.3993 46.9819 49.9819 47.3994 49.4667 47.4001H46.6667C46.1515 47.3994 45.734 46.9819 45.7333 46.4667V41.8001H50.4V46.4667ZM54.1333 39.0001C54.1327 39.5153 53.7152 39.9327 53.2 39.9334H16.8C16.2848 39.9327 15.8673 39.5153 15.8667 39.0001V27.8001C15.8673 27.2849 16.2848 26.8674 16.8 26.8667H47.9983L48.0011 26.8672L48.0043 26.8667H53.2C53.7152 26.8674 54.1327 27.2849 54.1333 27.8001V39.0001Z" fill="#66A80F"/>
<path d="M21.9335 29.6668C20.1294 29.6668 18.6668 31.1293 18.6668 32.9334C18.6668 34.7376 20.1294 36.2001 21.9335 36.2001C23.7376 36.2001 25.2001 34.7376 25.2001 32.9334C25.198 31.1302 23.7367 29.6689 21.9335 29.6668ZM21.9335 34.3334C21.3672 34.3334 20.8567 33.9923 20.6401 33.4692C20.4234 32.946 20.5431 32.3439 20.9435 31.9435C21.3439 31.5431 21.9461 31.4233 22.4692 31.64C22.9924 31.8567 23.3335 32.3672 23.3335 32.9334C23.3326 33.7063 22.7063 34.3326 21.9335 34.3334Z" fill="#66A80F"/>
<path d="M48.0666 29.6668C46.2625 29.6668 44.7999 31.1293 44.7999 32.9334C44.7999 34.7376 46.2625 36.2001 48.0666 36.2001C49.8707 36.2001 51.3333 34.7376 51.3333 32.9334C51.3311 31.1302 49.8699 29.6689 48.0666 29.6668ZM48.0666 34.3334C47.2934 34.3334 46.6666 33.7066 46.6666 32.9334C46.6666 32.1602 47.2934 31.5334 48.0666 31.5334C48.8398 31.5334 49.4666 32.1602 49.4666 32.9334C49.4657 33.7063 48.8395 34.3326 48.0666 34.3334Z" fill="#66A80F"/>
<path d="M7.93348 19.4001C6.12935 19.4001 4.66681 20.8626 4.66681 22.6668C4.66681 24.4709 6.12935 25.9334 7.93348 25.9334C9.73761 25.9334 11.2001 24.4709 11.2001 22.6668C11.198 20.8635 9.73672 19.4023 7.93348 19.4001ZM7.93348 24.0668C7.16028 24.0668 6.53348 23.44 6.53348 22.6668C6.53348 21.8936 7.16028 21.2668 7.93348 21.2668C8.70668 21.2668 9.33348 21.8936 9.33348 22.6668C9.33261 23.4396 8.70632 24.0659 7.93348 24.0668Z" fill="#66A80F"/>
</svg>
