<svg width="36" height="36" viewBox="0 0 36 36" fill="none" xmlns="http://www.w3.org/2000/svg">
<path d="M33.864 22.3445C31.77 20.2506 28.682 19.7423 26.1049 20.8189V8.40332C26.1049 7.8896 25.9048 7.40664 25.5416 7.04344L19.0621 0.563172C18.9105 0.411597 18.734 0.287767 18.5425 0.194912C18.5422 0.194701 18.5417 0.19456 18.5414 0.19435C18.5325 0.190065 18.5238 0.18571 18.5148 0.181566C18.498 0.173419 18.481 0.165763 18.4636 0.158879C18.2242 0.0556991 17.9644 0 17.7015 0H2.09105C0.970255 0 0.0583496 0.911835 0.0583496 2.0327V33.9673C0.0583496 35.0882 0.970185 36 2.09105 36H24.0722C25.1454 36 26.0368 35.1609 26.1015 34.0897C26.1024 34.0756 26.1028 34.0615 26.1028 34.0474V33.9018C26.9785 34.2679 27.913 34.4515 28.8477 34.4515C30.6644 34.4515 32.481 33.76 33.864 32.377C35.2039 31.0371 35.9418 29.2556 35.9418 27.3607C35.9418 25.4659 35.2038 23.6844 33.864 22.3445ZM23.7068 7.19515H19.0653C18.9796 7.19515 18.9099 7.12541 18.9099 7.03972V2.39773L23.7068 7.19515ZM24.698 34.0223C24.6697 34.345 24.398 34.5952 24.0722 34.5952H2.09105C1.74477 34.5952 1.46312 34.3136 1.46312 33.9673V2.0327C1.46312 1.68642 1.74477 1.40477 2.09105 1.40477H17.5052V7.03972C17.5052 7.9 18.2051 8.59992 19.0654 8.59992H24.7002V21.6053C24.3959 21.8248 24.1051 22.0709 23.8315 22.3445C22.4916 23.6845 21.7537 25.4659 21.7537 27.3608C21.7537 29.2557 22.4916 31.0372 23.8315 32.3771C24.1045 32.6501 24.3946 32.8957 24.6981 33.1148V34.0223H24.698ZM32.8706 31.3837C30.6523 33.602 27.043 33.602 24.8247 31.3837C23.7501 30.3091 23.1583 28.8804 23.1583 27.3608C23.1583 25.8412 23.7501 24.4124 24.8247 23.3379C25.9338 22.2288 27.3907 21.6742 28.8476 21.6742C30.3045 21.6742 31.7614 22.2288 32.8705 23.3379C33.9451 24.4125 34.5369 25.8412 34.5369 27.3608C34.5369 28.8804 33.9452 30.3091 32.8706 31.3837Z" fill="white"/>
<path d="M31.3426 25.336L28.0471 28.1379L26.3657 26.3805C26.0976 26.1001 25.653 26.0904 25.3726 26.3585C25.0924 26.6267 25.0825 27.0713 25.3507 27.3516L27.4898 29.5877C27.6274 29.7314 27.8121 29.8045 27.9976 29.8045C28.1588 29.8045 28.3206 29.7492 28.4524 29.6372L32.2526 26.4063C32.5481 26.155 32.584 25.7117 32.3327 25.4162C32.0815 25.1206 31.6381 25.0847 31.3426 25.336Z" fill="white"/>
</svg>
