<svg width="38" height="38" viewBox="0 0 38 38" fill="none" xmlns="http://www.w3.org/2000/svg">
<path d="M3.5625 4.15625C3.89042 4.15625 4.15625 3.89042 4.15625 3.5625C4.15625 3.23458 3.89042 2.96875 3.5625 2.96875C3.23458 2.96875 2.96875 3.23458 2.96875 3.5625C2.96875 3.89042 3.23458 4.15625 3.5625 4.15625Z" fill="white"/>
<path d="M7.71875 4.15625C8.04667 4.15625 8.3125 3.89042 8.3125 3.5625C8.3125 3.23458 8.04667 2.96875 7.71875 2.96875C7.39083 2.96875 7.125 3.23458 7.125 3.5625C7.125 3.89042 7.39083 4.15625 7.71875 4.15625Z" fill="white"/>
<path d="M12.4688 4.15625C12.7967 4.15625 13.0625 3.89042 13.0625 3.5625C13.0625 3.23458 12.7967 2.96875 12.4688 2.96875C12.1408 2.96875 11.875 3.23458 11.875 3.5625C11.875 3.89042 12.1408 4.15625 12.4688 4.15625Z" fill="white"/>
<path d="M16.625 4.15625C16.9529 4.15625 17.2188 3.89042 17.2188 3.5625C17.2188 3.23458 16.9529 2.96875 16.625 2.96875C16.2971 2.96875 16.0312 3.23458 16.0312 3.5625C16.0312 3.89042 16.2971 4.15625 16.625 4.15625Z" fill="white"/>
<path d="M36.8125 0.59375H1.1875C1.03003 0.59375 0.879005 0.656306 0.767655 0.767655C0.656306 0.879005 0.59375 1.03003 0.59375 1.1875V36.8125C0.59375 36.97 0.656306 37.121 0.767655 37.2323C0.879005 37.3437 1.03003 37.4062 1.1875 37.4062H36.8125C36.97 37.4062 37.121 37.3437 37.2323 37.2323C37.3437 37.121 37.4062 36.97 37.4062 36.8125V1.1875C37.4062 1.03003 37.3437 0.879005 37.2323 0.767655C37.121 0.656306 36.97 0.59375 36.8125 0.59375ZM19.5938 18.4062V10.6875H36.2188V18.4062H19.5938ZM18.4062 27.3125H1.78125V19.5938H18.4062V27.3125ZM36.2188 9.5H19.5938V1.78125H36.2188V9.5ZM18.4062 1.78125V18.4062H10.6875V1.78125H18.4062ZM1.78125 1.78125H9.5V18.4062H1.78125V1.78125ZM1.78125 28.5H18.4062V36.2188H1.78125V28.5ZM19.5938 36.2188V19.5938H27.3125V36.2188H19.5938ZM36.2188 36.2188H28.5V19.5938H36.2188V36.2188Z" fill="white"/>
<path d="M34.4375 4.15625C34.7654 4.15625 35.0312 3.89042 35.0312 3.5625C35.0312 3.23458 34.7654 2.96875 34.4375 2.96875C34.1096 2.96875 33.8438 3.23458 33.8438 3.5625C33.8438 3.89042 34.1096 4.15625 34.4375 4.15625Z" fill="white"/>
<path d="M34.4375 8.3125C34.7654 8.3125 35.0312 8.04667 35.0312 7.71875C35.0312 7.39083 34.7654 7.125 34.4375 7.125C34.1096 7.125 33.8438 7.39083 33.8438 7.71875C33.8438 8.04667 34.1096 8.3125 34.4375 8.3125Z" fill="white"/>
<path d="M34.4375 13.0625C34.7654 13.0625 35.0312 12.7967 35.0312 12.4688C35.0312 12.1408 34.7654 11.875 34.4375 11.875C34.1096 11.875 33.8438 12.1408 33.8438 12.4688C33.8438 12.7967 34.1096 13.0625 34.4375 13.0625Z" fill="white"/>
<path d="M34.4375 17.2188C34.7654 17.2188 35.0312 16.9529 35.0312 16.625C35.0312 16.2971 34.7654 16.0312 34.4375 16.0312C34.1096 16.0312 33.8438 16.2971 33.8438 16.625C33.8438 16.9529 34.1096 17.2188 34.4375 17.2188Z" fill="white"/>
<path d="M16.625 16.0312C16.7825 16.0312 16.9335 15.9687 17.0448 15.8573C17.1562 15.746 17.2188 15.595 17.2188 15.4375V8.3125C17.2188 8.15503 17.1562 8.00401 17.0448 7.89266C16.9335 7.78131 16.7825 7.71875 16.625 7.71875C16.4675 7.71875 16.3165 7.78131 16.2052 7.89266C16.0938 8.00401 16.0312 8.15503 16.0312 8.3125V15.4375C16.0312 15.595 16.0938 15.746 16.2052 15.8573C16.3165 15.9687 16.4675 16.0312 16.625 16.0312Z" fill="white"/>
<path d="M21.375 4.15625H26.125C26.2825 4.15625 26.4335 4.09369 26.5448 3.98234C26.6562 3.87099 26.7188 3.71997 26.7188 3.5625C26.7188 3.40503 26.6562 3.25401 26.5448 3.14266C26.4335 3.03131 26.2825 2.96875 26.125 2.96875H21.375C21.2175 2.96875 21.0665 3.03131 20.9552 3.14266C20.8438 3.25401 20.7812 3.40503 20.7812 3.5625C20.7812 3.71997 20.8438 3.87099 20.9552 3.98234C21.0665 4.09369 21.2175 4.15625 21.375 4.15625Z" fill="white"/>
<path d="M34.4375 35.0312C34.7654 35.0312 35.0312 34.7654 35.0312 34.4375C35.0312 34.1096 34.7654 33.8438 34.4375 33.8438C34.1096 33.8438 33.8438 34.1096 33.8438 34.4375C33.8438 34.7654 34.1096 35.0312 34.4375 35.0312Z" fill="white"/>
<path d="M30.2812 35.0312C30.6092 35.0312 30.875 34.7654 30.875 34.4375C30.875 34.1096 30.6092 33.8438 30.2812 33.8438C29.9533 33.8438 29.6875 34.1096 29.6875 34.4375C29.6875 34.7654 29.9533 35.0312 30.2812 35.0312Z" fill="white"/>
<path d="M25.5312 35.0312C25.8592 35.0312 26.125 34.7654 26.125 34.4375C26.125 34.1096 25.8592 33.8438 25.5312 33.8438C25.2033 33.8438 24.9375 34.1096 24.9375 34.4375C24.9375 34.7654 25.2033 35.0312 25.5312 35.0312Z" fill="white"/>
<path d="M21.375 35.0312C21.7029 35.0312 21.9688 34.7654 21.9688 34.4375C21.9688 34.1096 21.7029 33.8438 21.375 33.8438C21.0471 33.8438 20.7812 34.1096 20.7812 34.4375C20.7812 34.7654 21.0471 35.0312 21.375 35.0312Z" fill="white"/>
<path d="M3.5625 35.0312C3.89042 35.0312 4.15625 34.7654 4.15625 34.4375C4.15625 34.1096 3.89042 33.8438 3.5625 33.8438C3.23458 33.8438 2.96875 34.1096 2.96875 34.4375C2.96875 34.7654 3.23458 35.0312 3.5625 35.0312Z" fill="white"/>
<path d="M3.5625 30.875C3.89042 30.875 4.15625 30.6092 4.15625 30.2812C4.15625 29.9533 3.89042 29.6875 3.5625 29.6875C3.23458 29.6875 2.96875 29.9533 2.96875 30.2812C2.96875 30.6092 3.23458 30.875 3.5625 30.875Z" fill="white"/>
<path d="M3.5625 26.125C3.89042 26.125 4.15625 25.8592 4.15625 25.5312C4.15625 25.2033 3.89042 24.9375 3.5625 24.9375C3.23458 24.9375 2.96875 25.2033 2.96875 25.5312C2.96875 25.8592 3.23458 26.125 3.5625 26.125Z" fill="white"/>
<path d="M3.5625 21.9688C3.89042 21.9688 4.15625 21.7029 4.15625 21.375C4.15625 21.0471 3.89042 20.7812 3.5625 20.7812C3.23458 20.7812 2.96875 21.0471 2.96875 21.375C2.96875 21.7029 3.23458 21.9688 3.5625 21.9688Z" fill="white"/>
<path d="M21.375 21.9688C21.2175 21.9688 21.0665 22.0313 20.9552 22.1427C20.8438 22.254 20.7812 22.405 20.7812 22.5625V29.6875C20.7812 29.845 20.8438 29.996 20.9552 30.1073C21.0665 30.2187 21.2175 30.2812 21.375 30.2812C21.5325 30.2812 21.6835 30.2187 21.7948 30.1073C21.9062 29.996 21.9688 29.845 21.9688 29.6875V22.5625C21.9688 22.405 21.9062 22.254 21.7948 22.1427C21.6835 22.0313 21.5325 21.9688 21.375 21.9688Z" fill="white"/>
<path d="M16.625 33.8438H11.875C11.7175 33.8438 11.5665 33.9063 11.4552 34.0177C11.3438 34.129 11.2812 34.28 11.2812 34.4375C11.2812 34.595 11.3438 34.746 11.4552 34.8573C11.5665 34.9687 11.7175 35.0312 11.875 35.0312H16.625C16.7825 35.0312 16.9335 34.9687 17.0448 34.8573C17.1562 34.746 17.2188 34.595 17.2188 34.4375C17.2188 34.28 17.1562 34.129 17.0448 34.0177C16.9335 33.9063 16.7825 33.8438 16.625 33.8438Z" fill="white"/>
</svg>
