<svg width="38" height="38" viewBox="0 0 38 38" fill="none" xmlns="http://www.w3.org/2000/svg">
<g clip-path="url(#clip0)">
<path d="M27.7086 2.37524H0.792127C0.355131 2.37524 0.000442505 2.72993 0.000442505 3.16693V26.9167C0.000442505 27.3537 0.355131 27.7084 0.792127 27.7084H27.7086C28.1456 27.7084 28.5002 27.3537 28.5002 26.9167V3.16693C28.5002 2.72993 28.1456 2.37524 27.7086 2.37524ZM26.9169 26.125H1.58381V3.95861H26.9169V26.125Z" fill="white"/>
<path d="M28.4163 26.5618L19.7081 9.1454C19.5766 8.88415 19.3138 8.71634 19.0209 8.7084C18.7201 8.69415 18.4572 8.85409 18.3116 9.1074L12.4929 19.2913L8.476 15.2744C8.30656 15.105 8.06594 15.0211 7.83156 15.0464C7.59407 15.0733 7.38032 15.2047 7.25051 15.4058L0.125576 26.489C-0.110363 26.858 -0.00423108 27.3472 0.363074 27.5831C0.732012 27.8206 1.22126 27.7129 1.45712 27.3456L8.05006 17.0872L12.1065 21.1437C12.2807 21.3179 12.5293 21.4002 12.7715 21.3685C13.017 21.3353 13.2323 21.1896 13.3542 20.9758L18.9544 11.1767L26.9993 27.2711C27.1386 27.5481 27.4173 27.7081 27.7086 27.7081C27.8289 27.7081 27.9493 27.6811 28.0616 27.6241C28.4528 27.428 28.6127 26.953 28.4163 26.5618Z" fill="white"/>
<path d="M8.70874 5.54175C6.52696 5.54175 4.75047 7.31823 4.75047 9.50002C4.75047 11.6818 6.52696 13.4583 8.70874 13.4583C10.8905 13.4583 12.667 11.6818 12.667 9.50002C12.667 7.31823 10.8905 5.54175 8.70874 5.54175ZM8.70874 11.875C7.39931 11.875 6.33377 10.8095 6.33377 9.50002C6.33377 8.19059 7.39931 7.12504 8.70874 7.12504C10.0182 7.12504 11.0837 8.19059 11.0837 9.50002C11.0837 10.8095 10.0182 11.875 8.70874 11.875Z" fill="white"/>
<path d="M37.647 15.1749L28.1471 8.84168C27.7814 8.59943 27.2921 8.69918 27.0499 9.06173C26.8076 9.42592 26.9058 9.91672 27.2699 10.159L36.1491 16.079L25.8323 33.7647L12.2602 26.2249C11.8786 26.0111 11.3957 26.1504 11.1835 26.5321C10.9697 26.9152 11.1075 27.3966 11.4907 27.6087L25.7405 35.5254C25.8608 35.5934 25.9938 35.6251 26.1237 35.6251C26.3976 35.6251 26.662 35.4842 26.8093 35.2324L37.8925 16.2326C38.103 15.87 37.9954 15.4061 37.647 15.1749Z" fill="white"/>
</g>
<defs>
<clipPath id="clip0">
<rect width="38" height="38" fill="white"/>
</clipPath>
</defs>
</svg>
