<svg width="74" height="74" viewBox="0 0 74 74" fill="none" xmlns="http://www.w3.org/2000/svg">
<path d="M20.6343 30.7965L18.1375 24.8119L15.6406 30.7965H12.1646L16.439 21.497L12.4224 12.8177H15.8714L18.1375 18.2609L20.4036 12.8177H23.8526L19.836 21.497L24.1083 30.7965H20.6343Z" fill="white"/>
<path d="M25.2601 25.0151V18.5949C25.2601 14.7946 27.3723 12.5065 30.9502 12.5065C34.5281 12.5065 36.6112 14.7884 36.6112 18.5949V25.0255C36.6112 28.8279 34.5011 31.1139 30.9502 31.1139C27.3993 31.1139 25.2601 28.832 25.2601 25.0255V25.0151ZM33.3431 25.0255V18.5949C33.3431 16.6429 32.5552 15.558 30.9502 15.558C29.3452 15.558 28.5282 16.6367 28.5282 18.5887V25.0193C28.5282 26.9713 29.3598 28.0521 30.9502 28.0521C32.5406 28.0521 33.3431 26.9713 33.3431 25.0193" fill="white"/>
<path d="M49.4759 12.8156V30.9085H46.3096V24.4489C45.5391 24.6705 44.7414 24.7836 43.9396 24.7849C40.6735 24.7849 38.6652 22.6006 38.6652 18.8521V12.8156H41.8294V19.0036C41.8294 20.9328 42.7067 21.831 44.4032 21.831C45.0508 21.8285 45.6941 21.7249 46.3096 21.524V12.8115L49.4759 12.8156Z" fill="white"/>
<path d="M63.0287 12.8156L58.7501 26.683C57.642 30.2302 56.3032 31.0765 53.2928 31.0765H52.6234V28.2512H53.3947C54.7855 28.2512 55.351 27.7368 55.9414 25.735L51.4446 12.8156H54.8001L57.3739 20.8539L59.7169 12.8156H63.0287Z" fill="white"/>
<path d="M28.4846 57.9566V63.9392H25.3661V60.9085H17.2103V63.9392H14.0919V57.9566H15.1999C16.6552 56.3884 17.1812 53.5879 17.2789 50.968L17.597 42.94H26.863V57.967L28.4846 57.9566ZM23.7237 45.9085H20.5575L20.3246 51.8599C20.2477 54.2227 19.8111 56.3282 18.9088 57.9483H23.7237V45.9085Z" fill="white"/>
<path d="M30.0458 55.1292V48.7089C30.0458 44.9066 32.1581 42.6227 35.736 42.6227C39.3139 42.6227 41.397 44.9045 41.397 48.7089V55.1292C41.397 58.9295 39.2869 61.2176 35.736 61.2176C32.1851 61.2176 30.0458 58.9357 30.0458 55.1292ZM38.1289 55.1292V48.7089C38.1289 46.7569 37.3285 45.6782 35.736 45.6782C34.1435 45.6782 33.314 46.7569 33.314 48.7089V55.1292C33.314 57.0812 34.1456 58.1599 35.736 58.1599C37.3264 58.1599 38.1289 57.0812 38.1289 55.1292Z" fill="white"/>
<path d="M59.1265 42.94V60.9188H56.008V55.2848C56.0849 53.1793 56.166 51.1235 56.2679 49.0948L56.139 49.0429C55.6234 50.5323 55.0288 52.1545 54.4654 53.7684L53.2554 56.9526H50.1162L48.9062 53.7684C48.3387 52.1504 47.7711 50.5323 47.2306 49.0429L47.1017 49.0948C47.2056 51.1235 47.2826 53.1793 47.3595 55.2848V60.9085H44.2743V42.94H47.4655L50.3989 49.9785C50.7877 50.9265 51.4052 52.5715 51.6359 53.3182H51.7357C51.9686 52.5715 52.613 50.9265 52.9997 49.9785L55.9103 42.94H59.1265Z" fill="white"/>
<path d="M0.954834 0V74H73.0452V0H0.954834ZM52.7627 70.3325V61.4935H50.9249V70.3325H4.63045V37.947H19.3911V33.124H17.5512V36.1132H4.63045V3.66754H17.2332V10.9279H19.071V3.66754H69.3695V35.9452H29.5386V37.7789H50.9249V43.3964H52.7627V37.7789H69.3695V70.3325H52.7627Z" fill="white"/>
</svg>
