<svg width="56" height="56" viewBox="0 0 56 56" fill="none" xmlns="http://www.w3.org/2000/svg">
<path d="M52.1126 7.84888C49.5024 4.91511 45.8818 3.29943 41.918 3.29943C37.5835 3.29943 33.6283 4.97953 30.4802 8.15819C29.3855 9.26343 28.5672 10.3677 28 11.244C27.4328 10.3678 26.6145 9.26364 25.5198 8.15819C22.3717 4.97943 18.4166 3.29932 14.082 3.29932C5.78528 3.29932 0 10.2404 0 18.4927C0 29.64 11.8129 39.026 27.2837 52.4335C27.4892 52.6117 27.7446 52.7007 28 52.7007C28.2554 52.7007 28.5108 52.6117 28.7163 52.4335C44.2239 38.994 56 29.6245 56 18.4927C56 14.4464 54.6195 10.6664 52.1126 7.84888ZM28 50.1602C13.3909 37.5182 2.1875 28.4383 2.1875 18.4927C2.1875 11.0782 7.301 5.48693 14.082 5.48693C17.8472 5.48693 21.1543 6.88539 23.9117 9.64328C26.0123 11.7444 26.9924 13.8887 27.0021 13.9101C27.178 14.3024 27.5682 14.5544 27.9984 14.5553C27.999 14.5553 27.9998 14.5553 28.0004 14.5553C28.4305 14.5553 28.8212 14.3023 28.998 13.9101C29.0077 13.8887 29.9878 11.7445 32.0884 9.64328C34.8457 6.88529 38.1528 5.48693 41.9181 5.48693C48.6991 5.48693 53.8126 11.0782 53.8126 18.4927C53.8125 28.6628 41.8698 38.1579 28 50.1602Z" fill="#66A80F"/>
<path d="M38.5 24.2634H32.375V18.1384C32.375 17.5343 31.8853 17.0447 31.2812 17.0447H24.7188C24.1147 17.0447 23.625 17.5343 23.625 18.1384V24.2634H17.5C16.8959 24.2634 16.4062 24.7531 16.4062 25.3572V31.9197C16.4062 32.5238 16.8959 33.0134 17.5 33.0134H23.625V39.1384C23.625 39.7425 24.1147 40.2322 24.7188 40.2322H31.2812C31.8853 40.2322 32.375 39.7425 32.375 39.1384V33.0134H38.5C39.1041 33.0134 39.5938 32.5238 39.5938 31.9197V25.3572C39.5938 24.7531 39.1041 24.2634 38.5 24.2634ZM37.4062 30.8258H31.2812C30.6772 30.8258 30.1875 31.3155 30.1875 31.9196V38.0446H25.8125V31.9196C25.8125 31.3155 25.3228 30.8258 24.7188 30.8258H18.5938V26.4508H24.7188C25.3228 26.4508 25.8125 25.9611 25.8125 25.3571V19.2321H30.1875V25.3571C30.1875 25.9611 30.6772 26.4508 31.2812 26.4508H37.4062V30.8258Z" fill="#66A80F"/>
</svg>
