<svg width="56" height="56" viewBox="0 0 56 56" fill="none" xmlns="http://www.w3.org/2000/svg">
<g clip-path="url(#clip0)">
<path d="M18.69 11.1673C16.8195 8.5792 18.69 5.87351 18.69 5.87351C18.9873 5.41972 18.8604 4.81079 18.4066 4.51361C17.9643 4.22392 17.372 4.33612 17.0666 4.76771C17.0666 4.76771 14.402 8.56744 17.0666 12.2848C18.937 14.8729 17.0666 17.5786 17.0666 17.5786C16.7613 18.0269 16.8772 18.6378 17.3254 18.9432C17.7737 19.2484 18.3845 19.1326 18.69 18.6844C18.69 18.6844 21.3545 14.8846 18.69 11.1673Z" fill="#66A80F"/>
<path d="M55.4646 37.409C57.1207 32.8989 54.8069 27.9003 50.2967 26.2442C49.6447 26.0048 48.9662 25.8444 48.276 25.7663V24.984C48.276 24.2954 47.7176 23.7371 47.029 23.7371H6.44366C5.75503 23.7371 5.19669 24.2954 5.19669 24.984V30.1484C5.1911 35.8515 7.45565 41.3224 11.4904 45.3532C13.2961 47.1598 15.4068 48.6334 17.7252 49.7058H0.985224C0.441145 49.7058 0 50.147 0 50.691C0 51.2351 0.441145 51.6763 0.985224 51.6763H52.4992C53.0433 51.6763 53.4844 51.2351 53.4844 50.691C53.4844 50.147 53.0433 49.7058 52.4992 49.7058H35.7122C39.1465 48.1147 42.1064 45.6555 44.2998 42.571V42.5769C48.8099 44.233 53.8085 41.9192 55.4646 37.409ZM48.276 30.1484V27.7544C51.9447 28.3473 54.4381 31.8021 53.8452 35.4708C53.2523 39.1395 49.7975 41.6329 46.1288 41.04C46.0166 41.0219 45.905 41.0008 45.7938 40.977L45.3997 40.877C47.2883 37.6173 48.2805 33.9158 48.276 30.1484ZM26.7422 49.7117L26.7481 49.7058H26.701C15.9123 49.6735 7.17332 40.9372 7.13773 30.1484V25.7075H46.3055V30.1543C46.27 40.943 37.531 49.6795 26.7422 49.7117Z" fill="#66A80F"/>
<path d="M36.3708 11.1673C34.5003 8.57925 36.3708 5.87356 36.3708 5.87356C36.6841 5.43079 36.5793 4.81775 36.1364 4.50424C35.6935 4.19073 35.0806 4.29573 34.7671 4.73849C34.7603 4.74805 34.7537 4.75775 34.7472 4.7676C34.7472 4.7676 32.0827 8.56734 34.7472 12.2847C36.6177 14.8728 34.7472 17.5785 34.7472 17.5785C34.4419 18.0268 34.5578 18.6377 35.006 18.9431C35.4544 19.2483 36.0652 19.1325 36.3706 18.6843C36.3708 18.6844 39.0353 14.8847 36.3708 11.1673Z" fill="#66A80F"/>
<path d="M27.5303 11.1673C25.6598 8.5792 27.5303 5.87351 27.5303 5.87351C27.8276 5.41972 27.7007 4.81079 27.2469 4.51361C26.8046 4.22392 26.2123 4.33612 25.9069 4.76771C25.9069 4.76771 23.2424 8.56744 25.9069 12.2848C27.7773 14.8729 25.9069 17.5786 25.9069 17.5786C25.6016 18.0269 25.7175 18.6378 26.1657 18.9432C26.614 19.2484 27.2249 19.1326 27.5303 18.6844C27.5303 18.6844 30.1948 14.8846 27.5303 11.1673Z" fill="#66A80F"/>
</g>
<defs>
<clipPath id="clip0">
<rect width="56" height="56" fill="white"/>
</clipPath>
</defs>
</svg>
