<svg width="24" height="24" viewBox="0 0 24 24" fill="none" xmlns="http://www.w3.org/2000/svg">
<g opacity="0.8">
<path d="M17.377 0H6.623C4.86704 0.00185298 3.18353 0.700226 1.94188 1.94188C0.700226 3.18353 0.00185298 4.86704 0 6.623L0 17.377C0.00185298 19.133 0.700226 20.8165 1.94188 22.0581C3.18353 23.2998 4.86704 23.9981 6.623 24H17.377C19.133 23.9981 20.8165 23.2998 22.0581 22.0581C23.2998 20.8165 23.9981 19.133 24 17.377V6.623C23.9981 4.86704 23.2998 3.18353 22.0581 1.94188C20.8165 0.700226 19.133 0.00185298 17.377 0V0ZM21.871 17.377C21.8697 18.5685 21.3958 19.7108 20.5533 20.5533C19.7108 21.3958 18.5685 21.8697 17.377 21.871H6.623C5.43152 21.8697 4.28923 21.3958 3.44672 20.5533C2.60422 19.7108 2.13032 18.5685 2.129 17.377V6.623C2.13059 5.4317 2.6046 4.28966 3.44708 3.44737C4.28955 2.60508 5.4317 2.13132 6.623 2.13H17.377C18.5685 2.13132 19.7108 2.60522 20.5533 3.44772C21.3958 4.29023 21.8697 5.43252 21.871 6.624V17.378V17.377Z" fill="#7B7E8A"/>
<path d="M12.0004 5.81601C10.3609 5.81786 8.78903 6.46998 7.6297 7.62931C6.47038 8.78863 5.81826 10.3605 5.81641 12C5.81826 13.6395 6.47038 15.2114 7.6297 16.3707C8.78903 17.53 10.3609 18.1822 12.0004 18.184C13.6399 18.1822 15.2118 17.53 16.3711 16.3707C17.5304 15.2114 18.1826 13.6395 18.1844 12C18.1826 10.3605 17.5304 8.78863 16.3711 7.62931C15.2118 6.46998 13.6399 5.81786 12.0004 5.81601ZM12.0004 16.055C10.9254 16.0537 9.89472 15.626 9.13455 14.8659C8.37438 14.1057 7.94673 13.0751 7.94541 12C7.94673 10.925 8.37438 9.89433 9.13455 9.13415C9.89472 8.37398 10.9254 7.94633 12.0004 7.94501C13.0755 7.94633 14.1061 8.37398 14.8663 9.13415C15.6264 9.89433 16.0541 10.925 16.0554 12C16.0541 13.0751 15.6264 14.1057 14.8663 14.8659C14.1061 15.626 13.0755 16.0537 12.0004 16.055ZM18.4434 4.01001C18.0297 4.01185 17.6335 4.17701 17.3409 4.46954C17.0484 4.76208 16.8832 5.15831 16.8814 5.57201C16.8814 5.98201 17.0494 6.38601 17.3414 6.67701C17.6304 6.96701 18.0334 7.13401 18.4434 7.13401C18.8554 7.13401 19.2574 6.96601 19.5484 6.67701C19.8384 6.38601 20.0054 5.98301 20.0054 5.57201C20.0054 5.16101 19.8394 4.75701 19.5484 4.46801C19.2549 4.1757 18.8576 4.0114 18.4434 4.01101V4.01001Z" fill="#7B7E8A"/>
</g>
</svg>
