<svg width="38" height="38" viewBox="0 0 38 38" fill="none" xmlns="http://www.w3.org/2000/svg">
<path d="M25.3333 0C18.349 0 12.6666 5.68241 12.6666 12.6667C12.6666 13.4985 12.7571 14.3521 12.9357 15.2094L11.5208 15.9168C11.2935 16.0304 11.1343 16.2469 11.0933 16.4982C11.0524 16.7494 11.1351 17.0046 11.3152 17.1847L12.3389 18.2083L11.5472 19H10.2916C9.85402 19 9.49993 19.3541 9.49993 19.7917V21.0473L8.38048 22.1667H7.125C6.68741 22.1667 6.33331 22.5208 6.33331 22.9584V24.2139L5.21387 25.3333H3.95831C3.52071 25.3333 3.16662 25.6874 3.16662 26.125V27.3806L0.231934 30.3152C0.0834961 30.4637 0 30.6647 0 30.875V37.2083C0 37.6459 0.354098 38 0.791691 38H7.125C7.33526 38 7.53632 37.9165 7.68476 37.7681L19.7917 25.6611L20.8153 26.6848C20.9947 26.8649 21.2506 26.9492 21.5018 26.9067C21.7531 26.8657 21.9696 26.7064 22.0832 26.4792L22.7906 25.0643C30.8456 26.7435 38 20.4828 38 12.6667C38 5.68241 32.3177 0 25.3333 0ZM22.5586 23.3851C22.1999 23.2939 21.8203 23.464 21.6533 23.7979L21.1578 24.7883L20.3514 23.9819C20.0421 23.6727 19.5411 23.6727 19.2319 23.9819L6.79718 36.4167H1.58331V31.2028L4.51807 28.2681C4.6665 28.1196 4.75 27.9186 4.75 27.7083V26.9166H5.54169C5.75195 26.9166 5.95301 26.8331 6.10145 26.6847L7.68476 25.1014C7.8332 24.9529 7.91669 24.752 7.91669 24.5416V23.75H8.70838C8.91864 23.75 9.1197 23.6665 9.26814 23.5181L10.8514 21.9348C10.9999 21.7863 11.0834 21.5853 11.0834 21.375V20.5833H11.875C12.0853 20.5833 12.2863 20.4998 12.4348 20.3514L14.0181 18.7681C14.3273 18.4588 14.3273 17.9578 14.0181 17.6486L13.2117 16.8422L14.2021 16.3467C14.536 16.1797 14.7077 15.8024 14.6149 15.4414C14.373 14.5012 14.25 13.5681 14.25 12.6667C14.25 6.55522 19.2219 1.58338 25.3333 1.58338C31.4447 1.58338 36.4166 6.5553 36.4166 12.6667C36.4167 19.6795 29.8723 25.2684 22.5586 23.3851Z" fill="white"/>
<path d="M29.2917 4.75C27.1092 4.75 25.3334 6.52583 25.3334 8.70831C25.3334 10.8908 27.1092 12.6666 29.2917 12.6666C31.4742 12.6666 33.25 10.8909 33.25 8.70831C33.25 6.52576 31.4742 4.75 29.2917 4.75ZM29.2917 11.0833C27.982 11.0833 26.9167 10.018 26.9167 8.70831C26.9167 7.39864 27.982 6.33331 29.2917 6.33331C30.6013 6.33331 31.6667 7.39864 31.6667 8.70831C31.6667 10.018 30.6013 11.0833 29.2917 11.0833Z" fill="white"/>
<path d="M16.0653 20.8151L4.98195 31.8985C4.67268 32.2078 4.67268 32.7088 4.98195 33.018C5.13655 33.1725 5.33917 33.2499 5.54171 33.2499C5.74425 33.2499 5.9468 33.1725 6.10147 33.018L17.1848 21.9347C17.494 21.6254 17.494 21.1244 17.1848 20.8152C16.8755 20.5059 16.3745 20.5059 16.0653 20.8151Z" fill="white"/>
</svg>
