<svg width="56" height="56" viewBox="0 0 56 56" fill="none" xmlns="http://www.w3.org/2000/svg">
<path d="M52.2657 0.933228H3.73428C1.6753 0.933228 0 2.60863 0 4.66751V35.4665C0 35.9817 0.418141 36.3998 0.933297 36.3998H55.0666C55.5817 36.3998 55.9999 35.9817 55.9999 35.4665V4.66751C56 2.60863 54.3247 0.933228 52.2657 0.933228ZM54.1333 34.5332H1.8667V4.66751C1.8667 3.63709 2.70484 2.79993 3.73428 2.79993H52.2657C53.2952 2.79993 54.1333 3.63709 54.1333 4.66751V34.5332Z" fill="#66A80F"/>
<path d="M55.0667 34.5333H0.933297C0.418141 34.5333 0 34.9515 0 35.4666V40.1323C0 42.1913 1.6753 43.8666 3.73428 43.8666H52.2657C54.3247 43.8666 56 42.1913 56 40.1323V35.4666C56 34.9515 55.5819 34.5333 55.0667 34.5333ZM54.1333 40.1324C54.1333 41.1629 53.2952 42 52.2657 42H3.73428C2.70484 42 1.8667 41.1629 1.8667 40.1324V36.4H54.1334V40.1324H54.1333Z" fill="#66A80F"/>
<path d="M40.1335 49.4667H15.8669C14.3232 49.4667 13.0669 50.723 13.0669 52.2667C13.0669 53.8104 14.3232 55.0667 15.8669 55.0667H40.1336C41.6773 55.0667 42.9336 53.8104 42.9336 52.2667C42.9336 50.723 41.6772 49.4667 40.1335 49.4667ZM40.1335 53.2H15.8669C15.3517 53.2 14.9336 52.781 14.9336 52.2667C14.9336 51.7524 15.3517 51.3334 15.8669 51.3334H40.1336C40.6488 51.3334 41.0669 51.7524 41.0669 52.2667C41.0669 52.781 40.6488 53.2 40.1335 53.2Z" fill="#66A80F"/>
<path d="M38.2664 49.4667C35.1695 49.4667 33.5997 47.2687 33.5997 42.9334C33.5997 42.4183 33.1815 42.0001 32.6664 42.0001H23.3331C22.8179 42.0001 22.3998 42.4183 22.3998 42.9334C22.3998 47.2687 20.8299 49.4667 17.7331 49.4667C17.2179 49.4667 16.7998 49.8849 16.7998 50.4C16.7998 50.9152 17.2179 51.3333 17.7331 51.3333H38.2664C38.7815 51.3333 39.1997 50.9152 39.1997 50.4C39.1997 49.8849 38.7815 49.4667 38.2664 49.4667ZM22.2793 49.4667C23.4283 48.1937 24.1048 46.298 24.2411 43.8667H31.7591C31.8944 46.298 32.5711 48.1937 33.721 49.4667H22.2793Z" fill="#66A80F"/>
</svg>
