<svg width="34" height="34" viewBox="0 0 34 34" fill="none" xmlns="http://www.w3.org/2000/svg">
<g clip-path="url(#clip0)">
<path d="M33.4913 30.0229H29.9292V19.623H33.4913C33.7722 19.623 34 19.3953 34 19.1144C34 18.8334 33.7722 18.6057 33.4913 18.6057H29.8815C29.6421 17.3284 28.5191 16.3588 27.1736 16.3588H24.6987C23.305 16.3588 22.1504 17.399 21.9688 18.7439C21.6113 18.4443 21.2298 18.1782 20.8287 17.9473V15.7764C21.3577 15.3813 21.7008 14.7507 21.7008 14.0413C21.7008 13.2019 21.2199 12.473 20.5195 12.1142V10.6019C20.5195 9.58948 19.7966 8.74254 18.8399 8.55006V7.52206H26.5078C27.7386 7.52206 28.7402 6.52078 28.7402 5.28967C28.7402 4.05882 27.7386 3.05728 26.5078 3.05728H23.2609C22.9797 3.05728 22.7519 3.28503 22.7519 3.56596C22.7519 3.84689 22.9797 4.07465 23.2609 4.07465H26.5078C27.1778 4.07465 27.7228 4.61964 27.7228 5.28967C27.7228 5.9597 27.1778 6.5047 26.5078 6.5047H7.2375C6.56747 6.5047 6.02248 5.9597 6.02248 5.28967C6.02248 4.6199 6.56747 4.07465 7.2375 4.07465H21.2256C21.5068 4.07465 21.7343 3.84689 21.7343 3.56596C21.7343 3.28503 21.5068 3.05728 21.2256 3.05728H18.8399V2.69749C18.8399 1.61295 17.9574 0.730469 16.8729 0.730469C15.7878 0.730469 14.9051 1.61295 14.9051 2.69749V3.05728H7.23724C6.00639 3.05728 5.00485 4.05882 5.00485 5.28967C5.00485 6.52052 6.00639 7.52206 7.23724 7.52206H14.9048V8.55006C13.9482 8.7428 13.2255 9.58948 13.2255 10.6022V12.1142C12.5248 12.473 12.0439 13.2019 12.0439 14.0415C12.0439 14.7507 12.3871 15.3816 12.916 15.7764V17.9414C12.5985 18.1248 12.2929 18.3315 12.0009 18.56C11.7435 17.3053 10.631 16.3588 9.30128 16.3588H6.82635C5.48059 16.3588 4.35791 17.3287 4.11848 18.6057H0.508682C0.227753 18.6057 0 18.8334 0 19.1144C0 19.3956 0.227753 19.6233 0.508682 19.6233H4.07076V30.0231H0.508682C0.227753 30.0231 0 30.2509 0 30.5318C0 30.8128 0.227753 31.0405 0.508682 31.0405H4.11848C4.35791 32.3178 5.48085 33.2874 6.82635 33.2874H9.30128C10.6307 33.2874 11.7433 32.3411 12.0009 31.0864C13.3863 32.1702 15.0807 32.7572 16.8726 32.7572C18.7478 32.7572 20.5496 32.0921 21.9685 30.9028C22.1504 32.2475 23.305 33.2874 24.6987 33.2874H27.1734C28.5191 33.2874 29.6418 32.3178 29.8813 31.0405H33.4911C33.772 31.0405 33.9997 30.8128 33.9997 30.5318C33.9997 30.2509 33.7722 30.0229 33.4913 30.0229ZM15.9225 2.69749C15.9225 2.17377 16.3486 1.74783 16.8726 1.74783C17.3964 1.74783 17.8223 2.17377 17.8223 2.69749V3.05728H15.9225V2.69749ZM17.8223 7.52206V8.50856H15.9225V7.52206H17.8223ZM15.3186 9.52618H18.4262C19.0192 9.52618 19.5019 10.0087 19.5019 10.6019V11.8771H14.2428V10.6019C14.2428 10.0087 14.7256 9.52618 15.3186 9.52618ZM14.2081 12.8947H19.5367C20.1688 12.8947 20.6832 13.4091 20.6832 14.0413C20.6832 14.6734 20.1688 15.1878 19.5367 15.1878H14.2081C13.5759 15.1878 13.0615 14.6734 13.0615 14.0413C13.0615 13.4091 13.5759 12.8947 14.2081 12.8947ZM13.9336 16.1873C14.0237 16.199 14.115 16.2055 14.2081 16.2055H19.5367C19.6298 16.2055 19.7211 16.199 19.8111 16.1873V17.4547C18.8864 17.0856 17.8905 16.8895 16.8726 16.8895C15.8477 16.8895 14.855 17.0815 13.9336 17.4482V16.1873ZM5.08812 30.5316V19.1144C5.08812 18.2005 5.79706 17.4498 6.6938 17.3818V32.2644C5.79706 32.1964 5.08812 31.4454 5.08812 30.5316ZM9.43384 32.2644V29.5077C9.43384 29.2268 9.20609 28.999 8.9249 28.999C8.64397 28.999 8.41621 29.2268 8.41621 29.5077V32.2698H7.71143V17.3761H8.41621V27.4727C8.41621 27.7537 8.64397 27.9814 8.9249 27.9814C9.20609 27.9814 9.43384 27.7537 9.43384 27.4727V17.3816C10.3306 17.4495 11.0395 18.2005 11.0395 19.1144V19.6495V19.6596V29.9871V29.9969V30.5316C11.0395 31.4454 10.3306 32.1964 9.43384 32.2644ZM16.8726 31.7396C15.0558 31.7396 13.3539 31.0478 12.0569 29.7871V19.8594C12.5285 19.4007 13.0538 19.0176 13.619 18.7157C13.6488 18.7032 13.6774 18.6879 13.7043 18.6703C14.6709 18.1712 15.7497 17.9069 16.8729 17.9069C18.7984 17.9069 20.6355 18.711 21.9431 20.1198V29.5269C20.6355 30.9355 18.7984 31.7396 16.8726 31.7396ZM22.9605 30.5316V19.1144C22.9605 18.2005 23.6697 17.4495 24.5664 17.3818V32.2644C23.6694 32.1964 22.9605 31.4454 22.9605 30.5316ZM25.5838 32.2698V17.3761H26.2886V32.2698H25.5838ZM27.3059 32.2644V17.3816C28.2027 17.4495 28.9119 18.2005 28.9119 19.1144V30.5316C28.9119 31.4454 28.2027 32.1964 27.3059 32.2644Z" fill="black"/>
</g>
<defs>
<clipPath id="clip0">
<rect width="34" height="34" fill="white"/>
</clipPath>
</defs>
</svg>
