<svg width="56" height="56" viewBox="0 0 56 56" fill="none" xmlns="http://www.w3.org/2000/svg">
<path d="M55.0668 9.33337H32.6668C32.1514 9.33337 31.7335 9.75127 31.7335 10.2667V18.6667C31.7338 19.1821 32.1521 19.5997 32.6675 19.5993C32.7675 19.5992 32.8669 19.5831 32.9618 19.5515L34.135 19.1604C35.4087 18.7435 36.7792 19.4381 37.1961 20.7119C37.6129 21.9856 36.9184 23.3561 35.6446 23.773C35.1542 23.9335 34.6253 23.9335 34.1348 23.773L32.9616 23.3819C32.4726 23.219 31.9441 23.4834 31.7812 23.9725C31.7496 24.0673 31.7335 24.1667 31.7334 24.2667V31.7334H24.2667C23.7513 31.7337 23.3337 32.152 23.3341 32.6674C23.3342 32.7674 23.3503 32.8668 23.3819 32.9616L23.773 34.1348C24.1899 35.4086 23.4953 36.7791 22.2215 37.1959C20.9478 37.6129 19.5773 36.9183 19.1604 35.6445C18.9999 35.154 18.9999 34.6252 19.1604 34.1347L19.5515 32.9615C19.7144 32.4725 19.45 31.944 18.9609 31.7811C18.8661 31.7495 18.7667 31.7334 18.6667 31.7333H10.2668C9.7514 31.7333 9.3335 32.1512 9.3335 32.6666V55.0666C9.3335 55.582 9.7514 55.9999 10.2668 55.9999H55.0668C55.5823 55.9999 56.0002 55.582 56.0002 55.0666V10.2667C56.0002 9.75127 55.5823 9.33337 55.0668 9.33337ZM31.7813 46.3725C31.7497 46.4673 31.7336 46.5667 31.7335 46.6667V54.1334H11.2002V33.6H17.3723C16.6591 35.8614 17.9142 38.2728 20.1756 38.9858C22.4369 39.699 24.8483 38.4439 25.5614 36.1826C25.8264 35.3421 25.8264 34.4404 25.5614 33.5999H31.7335V41.0666C31.7338 41.582 32.1521 41.9996 32.6675 41.9992C32.7675 41.9991 32.8669 41.983 32.9618 41.9514L34.135 41.5603C35.4087 41.1435 36.7792 41.838 37.1961 43.1118C37.6129 44.3855 36.9184 45.756 35.6446 46.1729C35.1542 46.3334 34.6253 46.3334 34.1348 46.1729L32.9616 45.7818C32.4727 45.619 31.9442 45.8834 31.7813 46.3725ZM54.1335 54.1334H33.6002V47.9612C35.8615 48.6744 38.2729 47.4193 38.986 45.158C39.6991 42.8966 38.444 40.4852 36.1827 39.7722C35.3422 39.5071 34.4405 39.5071 33.6 39.7722V33.6H41.0667C41.5821 33.5997 41.9997 33.1814 41.9993 32.666C41.9992 32.566 41.9831 32.4666 41.9515 32.3718L41.5604 31.1986C41.1436 29.9248 41.8381 28.5543 43.1119 28.1375C44.3856 27.7206 45.7561 28.4151 46.173 29.6889C46.3335 30.1794 46.3335 30.7082 46.173 31.1987L45.7819 32.3719C45.619 32.861 45.8834 33.3895 46.3725 33.5523C46.4673 33.5839 46.5667 33.6 46.6667 33.6002H54.1334V54.1334H54.1335ZM54.1335 31.7334H47.9614C48.6745 29.472 47.4194 27.0606 45.1581 26.3476C42.8967 25.6344 40.4854 26.8895 39.7723 29.1508C39.5072 29.9913 39.5072 30.893 39.7723 31.7335H33.6002V25.5614C34.8964 25.9815 36.3156 25.7548 37.4166 24.9519C39.3469 23.575 39.7956 20.8939 38.4187 18.9635C37.3314 17.4391 35.3815 16.7953 33.6002 17.3723V11.2H54.1335V31.7334Z" fill="#66A80F"/>
<path d="M26.8493 8.0388C26.0089 7.77373 25.1071 7.77373 24.2667 8.0388V0.933333C24.2667 0.4179 23.8488 0 23.3333 0H0.933333C0.4179 0 0 0.4179 0 0.933333V23.3333C0 23.8488 0.4179 24.2667 0.933333 24.2667H8.0388C7.32562 26.528 8.58072 28.9394 10.8421 29.6525C13.1034 30.3655 15.5148 29.1105 16.2279 26.8492C16.4929 26.0087 16.4929 25.107 16.2279 24.2666H23.3333C23.8488 24.2666 24.2667 23.8486 24.2667 23.3332V16.2278C26.528 16.9409 28.9394 15.6858 29.6525 13.4245C30.3657 11.1632 29.1107 8.75198 26.8493 8.0388ZM26.3112 14.4396C25.8208 14.6001 25.2919 14.6001 24.8015 14.4396L23.6283 14.0485C23.1392 13.8857 22.6107 14.15 22.4478 14.6391C22.4162 14.7339 22.4001 14.8334 22.4 14.9333V22.4H14.9333C14.4179 22.4004 14.0003 22.8186 14.0007 23.334C14.0008 23.434 14.0169 23.5334 14.0485 23.6283L14.4396 24.8015C14.8566 26.0752 14.1619 27.4457 12.8882 27.8626C11.6144 28.2794 10.2439 27.5849 9.82707 26.3111C9.66653 25.8207 9.66653 25.2918 9.82707 24.8013L10.2181 23.6281C10.381 23.1391 10.1166 22.6106 9.62757 22.4477C9.53272 22.4161 9.43332 22.4 9.33333 22.3999H1.86667V1.86667H22.4V9.33333C22.4004 9.84877 22.8186 10.2663 23.334 10.266C23.434 10.2659 23.5334 10.2498 23.6283 10.2181L24.8015 9.82707C26.0752 9.41022 27.4457 10.1047 27.8626 11.3785C28.2795 12.6522 27.5849 14.0227 26.3112 14.4396Z" fill="#66A80F"/>
</svg>
