<svg width="40" height="40" viewBox="0 0 40 40" fill="none" xmlns="http://www.w3.org/2000/svg">
<g clip-path="url(#clip0)">
<path d="M35.1469 8.0989L20.1132 0.08814C19.8901 -0.0308936 19.6228 -0.0292231 19.4015 0.0923166L4.78372 8.10308C4.54398 8.23464 4.39529 8.48607 4.39529 8.75964V19.2237C4.40407 27.8255 9.50038 35.6074 17.3817 39.0535L19.4107 39.9377C19.6003 40.0204 19.8162 40.0208 20.0062 39.9385L22.2925 38.9512C30.32 35.5798 35.5424 27.7228 35.5433 19.0162V8.75964C35.5433 8.48315 35.3908 8.22879 35.1469 8.0989ZM34.0464 19.0162C34.0447 27.1226 29.181 34.4371 21.7066 37.5741L21.7015 37.5767L19.7105 38.4362L17.9806 37.6815C10.6444 34.4738 5.90013 27.2307 5.89178 19.2237V9.20278L19.7661 1.59882L34.0464 9.20821V19.0162Z" fill="white"/>
<path d="M19.454 26.2161C22.082 26.2161 23.954 24.5421 23.954 22.0761C23.954 19.6461 22.046 18.1881 19.598 18.1881C18.554 18.1881 17.852 18.4221 17.114 18.7461L17.384 14.7141H23.396V13.4001H16.142L15.782 19.5381L16.736 20.1681C17.474 19.7721 18.32 19.4481 19.382 19.4481C21.218 19.4481 22.514 20.5281 22.514 22.0941C22.514 23.7321 21.272 24.9201 19.472 24.9201C18.194 24.9201 16.988 24.2541 15.89 23.1921L14.954 24.2181C16.088 25.3521 17.654 26.2161 19.454 26.2161Z" fill="white"/>
</g>
<defs>
<clipPath id="clip0">
<rect width="40" height="40" fill="white"/>
</clipPath>
</defs>
</svg>
