<svg width="56" height="56" viewBox="0 0 56 56" fill="none" xmlns="http://www.w3.org/2000/svg">
<g clip-path="url(#clip0)">
<path d="M27.3885 49.1193C27.3885 46.1704 24.9981 43.78 22.0497 43.78C19.1008 43.78 16.7104 46.1704 16.7104 49.1188C16.7104 52.0677 19.1008 54.4581 22.0497 54.4581C24.9965 54.4549 27.3853 52.0666 27.3885 49.1193ZM18.6042 49.1193C18.6042 47.2161 20.1465 45.6737 22.0497 45.6737C23.9524 45.6737 25.4948 47.2161 25.4948 49.1188C25.4948 51.022 23.9524 52.5644 22.0497 52.5644C20.1476 52.5623 18.6063 51.021 18.6042 49.1193Z" fill="#66A80F"/>
<path d="M41.8197 54.4581C44.7686 54.4586 47.159 52.0682 47.159 49.1193C47.1596 46.1704 44.7692 43.78 41.8203 43.78C38.8714 43.78 36.481 46.1704 36.481 49.1193C36.4847 52.0661 38.8724 54.4544 41.8197 54.4581ZM41.8197 45.6737C43.7224 45.6737 45.2653 47.2161 45.2653 49.1188C45.2658 51.0215 43.723 52.5644 41.8203 52.5644C39.9176 52.5644 38.3747 51.022 38.3747 49.1193C38.3768 47.2177 39.9181 45.6764 41.8197 45.6737Z" fill="#66A80F"/>
<path d="M0.946855 3.38179H6.72256C8.62314 3.37439 10.2437 4.75822 10.5332 6.63713L15.1053 35.5178C15.537 38.3182 17.9527 40.3815 20.7864 40.3704H49.0473C49.5699 40.3704 49.9941 39.9461 49.9941 39.4236C49.9941 38.9005 49.5699 38.4767 49.0473 38.4767H20.7864C18.8858 38.4841 17.2653 37.0998 16.9758 35.2214L16.1985 30.3111H45.1426C47.5932 30.3101 49.7743 28.7577 50.5775 26.4429L55.9474 10.9445C56.0483 10.6549 56.0023 10.3347 55.8248 10.0848C55.6467 9.83541 55.3593 9.68693 55.0528 9.68693H12.9331L12.4037 6.34071C11.972 3.5403 9.55626 1.47699 6.72256 1.48808H0.946855C0.42376 1.48808 0 1.91237 0 2.43494C0 2.95803 0.42376 3.38179 0.946855 3.38179ZM53.7224 11.5812L48.7884 25.8226C48.2494 27.3755 46.7864 28.4169 45.1426 28.4174H15.8984L13.2327 11.5806L53.7224 11.5812Z" fill="#66A80F"/>
</g>
<defs>
<clipPath id="clip0">
<rect width="56" height="56" fill="white"/>
</clipPath>
</defs>
</svg>
