<svg width="24" height="24" viewBox="0 0 24 24" fill="none" xmlns="http://www.w3.org/2000/svg">
<g clip-path="url(#clip0)">
<path d="M23.5912 2.10454C23.817 2.10454 24 1.9215 24 1.69575V0.408796C24 0.183047 23.817 0 23.5912 0H5.09215C4.8664 0 4.68335 0.183047 4.68335 0.408796V18.9077C4.68335 19.1335 4.8664 19.3165 5.09215 19.3165H23.5911C23.8169 19.3165 23.9999 19.1335 23.9999 18.9077V3.05835C23.9999 2.8326 23.8169 2.64956 23.5911 2.64956C23.3653 2.64956 23.1823 2.8326 23.1823 3.05835V10.0622H21.5588C21.333 10.0622 21.15 10.2453 21.15 10.471C21.15 10.6968 21.333 10.8798 21.5588 10.8798H23.1823V18.499H11.5028V16.521C11.5028 16.2953 11.3197 16.1122 11.094 16.1122C10.8682 16.1122 10.6852 16.2953 10.6852 16.521V18.499H5.50094V0.817592H10.6852V13.5778C10.6852 13.8035 10.8683 13.9866 11.094 13.9866C11.3198 13.9866 11.5028 13.8035 11.5028 13.5778V10.8798H18.7792C19.0049 10.8798 19.1879 10.6968 19.1879 10.471C19.1879 10.2453 19.005 10.0622 18.7792 10.0622H11.5028V0.817592H23.1824V1.69575C23.1824 1.9215 23.3653 2.10454 23.5912 2.10454Z" fill="#66A80F"/>
<path d="M3.45393 2.35926L2.10501 0.19275C2.03038 0.0728905 1.89913 0 1.75799 0C1.61681 0 1.4856 0.0728905 1.41098 0.19275L0.0620127 2.35926C-0.0164559 2.48531 -0.0204402 2.64398 0.0516534 2.77378C0.123747 2.90357 0.260575 2.9841 0.409028 2.9841H1.3492V4.69354C1.3492 4.91929 1.53224 5.10233 1.75799 5.10233C1.98374 5.10233 2.16679 4.91929 2.16679 4.69354V2.9841H3.10696C3.25541 2.9841 3.39224 2.90362 3.46433 2.77378C3.53643 2.64393 3.53244 2.48526 3.45393 2.35926ZM1.1451 2.16651L1.75795 1.18223L2.37079 2.16651H1.1451Z" fill="#66A80F"/>
<path d="M3.46404 16.5428C3.39195 16.413 3.25512 16.3325 3.10667 16.3325H2.1665V5.78361C2.1665 5.55786 1.98345 5.37482 1.7577 5.37482C1.53195 5.37482 1.34891 5.55786 1.34891 5.78361V16.3325H0.408784C0.260331 16.3325 0.123503 16.413 0.0514092 16.5428C-0.0206844 16.6727 -0.0167 16.8313 0.0617686 16.9573L1.41069 19.1238C1.48531 19.2437 1.61652 19.3166 1.7577 19.3166C1.89894 19.3166 2.03014 19.2437 2.10472 19.1238L3.45364 16.9573C3.5322 16.8312 3.53618 16.6726 3.46404 16.5428ZM1.75775 18.1344L1.14486 17.1501H2.37055L1.75775 18.1344Z" fill="#66A80F"/>
<path d="M23.8072 21.8952L21.6407 20.5463C21.5147 20.4678 21.356 20.4639 21.2262 20.5359C21.0964 20.608 21.0159 20.7449 21.0159 20.8933V21.8335H7.66745V20.8933C7.66745 20.7449 7.58697 20.608 7.45717 20.5359C7.32738 20.4639 7.16875 20.4678 7.04261 20.5463L4.8761 21.8952C4.75624 21.9699 4.68335 22.1011 4.68335 22.2422C4.68335 22.3834 4.75624 22.5146 4.8761 22.5893L7.04261 23.9382C7.10861 23.9793 7.18361 23.9999 7.25866 23.9999C7.32695 23.9999 7.3953 23.9829 7.45713 23.9485C7.58697 23.8764 7.66745 23.7396 7.66745 23.5912V22.651H21.0159V23.5912C21.0159 23.7396 21.0965 23.8764 21.2262 23.9485C21.288 23.9829 21.3564 23.9999 21.4247 23.9999C21.4997 23.9999 21.5747 23.9792 21.6407 23.9382L23.8072 22.5893C23.9271 22.5146 24 22.3834 24 22.2422C24 22.101 23.9271 21.9699 23.8072 21.8952ZM6.84986 22.8551L5.86558 22.2422L6.84986 21.6294V22.8551ZM21.8335 22.8551V21.6294L22.8178 22.2422L21.8335 22.8551Z" fill="#66A80F"/>
</g>
<defs>
<clipPath id="clip0">
<rect width="24" height="24" fill="white"/>
</clipPath>
</defs>
</svg>
